<?xml version="1.0" encoding="UTF-8"?>
<svg fill="#FFFFFF" width="100pt" height="100pt" version="1.1" viewBox="0 0 100 100" xmlns="http://www.w3.org/2000/svg">
 <g fill-rule="evenodd">
  <path d="m34.664 35.848l-4.8828 2.8203v5.6992l4.8828 2.75 4.8789-2.7617 0.003906-5.6914zm29.195 0l-4.8828 2.8203-0.054687 5.707 4.9414 2.7422 4.8867-2.75v-5.6992zm-14.699 25.398l-4.8828 2.6797v5.6992l4.8828 2.75 4.8867-2.75v-5.6992zm-36.613 8.8242l26.887-15.586v-10.066l8.7031-5.0586 0.011719-31.594-3.8555-2.0547c-12.148 1.6875-22.809 8.1875-29.816 17.539l0.054688 5.6992-5.0156 2.7656c-2.668 5.6055-4.0781 11.805-4.0781 18.324 0 6.5195 0.85156 12.336 3.2695 17.832zm41.539 24.305c12.945-1.1523 24.281-7.8906 31.703-17.766l-0.20312-4.4102-27.613-15.879-8.8086 4.9258-8.6758-4.8984-27.074 15.66 0.058594 4.2227c7.0781 9.2852 18.742 16.453 30.836 18.062l4.8516-2.7734zm-3.8828-55.016l8.7188 5.0078 0.035156 10.148 27.52 15.883 4.2422-2.2773c2.4648-5.4922 3.8477-11.633 3.8477-18.086 0-6.6133-1.4531-12.895-4.2461-18.555l-5.0742-2.7578 0.10156-5.6719c-7.2617-9.6289-18.48-16.211-31.262-17.426l-3.8633 2.1211z"/>
  <path d="m39.438 44.352h0.10547v0.125h-0.10547z"/>
  <path d="m58.914 44.363h0.003907v0.011719h-0.003907z"/>
  <path d="m49.16 61.242h0.003906v0.011718h-0.003906z"/>
 </g>
</svg>
